PathFileType	4	(X/Y/Z)	C:/Users/beibeiliu/ov580/test_trc/User3\sequence.8_training_dense_left.trc
DataRate	CameraRate	NumFrames	NumMarkers	Units	OrigDataRate	OrigDataStartFrame	OrigNumFrames
120	120	11	19	mm	120	54	161
Frame#	Time	ThumbCMC			ThumbMCP			ThumbIP			ThumbTip			IndexMCP			IndexPIP			IndexTip			MiddleMCP			MiddlePIP			MiddleTip			RingMCP			RingPIP			RingTip			PinkyMCP			PinkyPIP			PinkyTip			BackHand1			BackHand2			BackHand3	
		X0	Y0	Z0	X1	Y1	Z1	X2	Y2	Z2	X3	Y3	Z3	X4	Y4	Z4	X5	Y5	Z5	X6	Y6	Z6	X7	Y7	Z7	X8	Y8	Z8	X9	Y9	Z9	X10	Y10	Z10	X11	Y11	Z11	X12	Y12	Z12	X13	Y13	Z13	X14	Y14	Z14	X15	Y15	Z15	X16	Y16	Z16	X17	Y17	Z17	X18	Y18	Z18	
53	0.441667	-126.452	-52.2173	31.7143	-105.79	-52.5587	6.37772	-87.8158	-54.9898	-18.2621	-87.7594	-64.71	-39.5715	-149.229	-24.3642	-33.6754	-146.057	-12.9183	-65.4912	-142.073	-25.9975	-90.2651	-169.964	-17.267	-39.5142	-174.406	-13.1222	-72.4344	-173.538	-42.9379	-95.3533	-186.983	-28.4975	-31.3341	-195.648	-26.1474	-60.0302	-191.021	-50.8768	-79.6047	-204.929	-46.3654	-18.1705	-211.887	-44.7487	-46.4037	-208.444	-66.4097	-64.7102	-189.517	-35.9316	13.9384	-188.714	-35.6582	40.1333	-153.58	-29.359	19.567	
54	0.45	-126.384	-49.6248	26.3479	-108.333	-52.3117	7.38311	-89.7323	-53.9888	-18.452	-89.0203	-63.3735	-40.5822	-150.088	-21.932	-35.2647	-146.898	-10.898	-69.1396	-143.503	-24.6207	-91.7304	-175.307	-17.207	-37.8774	-174.776	-12.2283	-72.8304	-172.68	-41.8897	-96.3339	-192.213	-28.8081	-30.6114	-198.746	-26.2398	-62.688	-191.326	-50.6345	-79.3647	-207.27	-43.5845	-20.5536	-214.095	-43.5015	-46.4421	-207.315	-65.8761	-62.9754	-189.537	-34.3502	11.0821	-190.205	-37.4067	40.7968	-154.214	-30.3955	20.3714	
55	0.458333	-129.19	-51.4104	27.2421	-107.134	-52.1322	4.75853	-93.6412	-54.8555	-18.823	-86.2671	-62.5329	-43.7316	-151.888	-22.8058	-33.3684	-149.072	-10.5502	-65.6161	-145.292	-24.1579	-92.0895	-173.417	-16.6626	-37.0699	-174.883	-9.56618	-71.7078	-176.42	-37.1213	-94.2154	-189.259	-28.9385	-28.3595	-198.651	-25.1217	-63.5545	-192.863	-49.8505	-79.389	-208.989	-44.656	-18.1493	-214.31	-41.8821	-43.9976	-209.46	-69.5227	-63.2376	-186.71	-35.994	11.6532	-186.958	-36.1304	38.6293	-156.161	-28.8556	23.7329	
56	0.466667	-127.598	-49.6479	26.3337	-106.391	-50.0724	6.17413	-89.9132	-50.8157	-18.1945	-86.0292	-59.2553	-41.302	-150.457	-19.2016	-33.4777	-146.955	-7.86527	-63.146	-142.825	-20.1025	-89.0222	-174.657	-14.1194	-36.3515	-178.031	-9.01487	-70.0785	-177.109	-38.6686	-93.4347	-190.817	-28.9684	-27.1044	-199.251	-23.6698	-60.9672	-190.325	-48.9117	-78.7792	-205.953	-47.3811	-15.8567	-215.201	-41.2962	-41.8287	-210.685	-66.4549	-62.5829	-191.738	-35.5762	8.98574	-190.782	-37.0818	42.4375	-155.185	-30.5438	20.2304	
57	0.475	-128.764	-50.5474	29.7658	-109.081	-49.1539	8.05687	-94.1824	-49.4958	-20.3173	-90.7915	-56.5635	-41.6352	-149.584	-16.3847	-35.3251	-149.329	-5.75779	-63.8017	-143.191	-20.1697	-90.0859	-175.294	-12.6103	-34.7939	-177.503	-4.02105	-64.6746	-174.49	-36.0248	-92.6806	-190.45	-23.3008	-29.5227	-196.289	-18.0609	-59.53	-191.529	-41.7311	-77.9809	-207.468	-45.4796	-16.6393	-217.84	-41.4499	-45.006	-212.723	-61.9037	-64.4186	-190.184	-37.8187	11.2953	-185.897	-36.4536	40.0184	-156.632	-29.6073	22.9767	
58	0.483333	-124.774	-49.6352	28.2791	-108.658	-48.817	4.832	-92.6903	-47.8635	-18.5612	-90.9021	-53.6836	-46.0132	-150.471	-15.7617	-33.2078	-149.457	-1.2402	-61.8586	-145.375	-17.6013	-92.499	-175.292	-11.7896	-33.2228	-177.261	-1.17429	-68.413	-174.184	-29.8667	-93.4872	-191.435	-22.8773	-26.7805	-198.516	-14.1549	-58.3863	-193.452	-35.3389	-78.5815	-208.994	-41.8677	-17.264	-217.054	-35.135	-42.8028	-212.685	-56.9874	-65.8765	-186.04	-33.9925	7.84748	-187.477	-37.9794	40.2325	-157.135	-28.5795	20.4382	
59	0.491667	-128.256	-48.4258	24.5374	-112.679	-46.0947	-0.342824	-98.8726	-44.1519	-25.4262	-100.942	-48.687	-52.0753	-154.011	-4.39057	-36.0544	-151.12	8.03928	-65.552	-153.335	-4.92063	-89.2336	-181.538	-0.452098	-33.6785	-182.718	11.474	-62.9562	-185.521	-16.1985	-90.696	-197.787	-11.969	-28.3619	-203.035	-3.94227	-58.6793	-201.617	-29.2505	-81.133	-213.839	-35.9611	-17.6371	-225.606	-27.8332	-46.0067	-221.137	-44.5441	-64.2462	-194.795	-30.5037	12.61	-192.459	-34.1631	39.4379	-156.945	-24.6009	19.417	
60	0.5	-139.057	-45.371	18.0049	-125.558	-43.042	-7.06334	-111.109	-39.8852	-37.3775	-116.161	-43.8608	-59.4118	-168.997	-4.41708	-36.9593	-170.058	13.1567	-66.0805	-171.605	-4.13011	-96.4688	-190.512	4.27719	-36.0869	-198.33	15.9188	-64.3895	-197.702	-12.7272	-96.2774	-211.06	-7.67623	-29.7055	-221.445	0.325652	-58.9947	-217.802	-20.5301	-81.5469	-226.056	-29.1453	-20.4157	-241.343	-22.9188	-43.7668	-241.009	-39.3633	-67.1907	-203.225	-24.2528	6.41072	-198.84	-32.2693	38.3413	-172.615	-23.8005	16.149	
61	0.508333	-153.452	-55.1199	8.04364	-139.796	-57.0993	-16.7159	-128.195	-58.6144	-43.8064	-131.562	-63.8375	-71.4096	-188.986	-19.0293	-47.4141	-190.504	-6.25386	-79.8462	-189.896	-25.9553	-105.704	-209.957	-9.43125	-47.6941	-220.077	-4.24505	-78.6012	-222.579	-35.0348	-101.603	-230.816	-21.5821	-35.4702	-239.31	-14.7798	-65.8048	-242.516	-42.8266	-84.8203	-247.521	-37.871	-22.2814	-260.138	-36.0495	-47.694	-257.913	-56.6744	-65.9594	-219.717	-33.0491	1.12945	-212.438	-36.9659	29.9862	-180.722	-30.2072	9.03298	
62	0.516667	-165.033	-73.2365	7.24526	-153.119	-80.1366	-21.0389	-143.488	-87.3758	-42.9361	-144.843	-97.4124	-69.7694	-201.996	-49.8534	-57.7449	-204.356	-46.7609	-88.6734	-209.733	-75.189	-108.224	-224.305	-44.1193	-54.6777	-233.964	-46.2291	-88.8179	-241.588	-80.7884	-100.094	-243.811	-50.6753	-42.3663	-252.916	-51.8568	-70.8842	-254.91	-86.426	-81.3124	-257.752	-65.3219	-22.5211	-273.544	-69.4615	-46.5295	-271.405	-97.7415	-59.05	-227.257	-52.2414	1.38864	-220.033	-50.5267	26.2729	-194.259	-50.2279	1.84005	
63	0.525	-165.911	-85.1324	11.7986	-151.142	-95.7685	-11.3405	-140.181	-107.302	-33.9366	-137.574	-123.844	-54.5603	-201.757	-88.7615	-54.785	-204.977	-97.4171	-87.4035	-201.806	-128.487	-95.8973	-227.499	-85.798	-55.0845	-233.88	-97.7747	-83.7196	-228.999	-137.684	-84.267	-241.059	-92.6678	-37.4358	-250.623	-105.647	-66.7019	-245.955	-137.957	-63.7467	-251.679	-102.525	-15.6362	-268.487	-115.854	-37.2255	-254.399	-143.768	-40.0608	-228.018	-79.2224	0.407158	-228.007	-65.8585	27.791	-196.961	-68.8684	-1.46243	
